<svg xmlns="http://www.w3.org/2000/svg" data-name="Layer 1" viewBox="0 0 512 512"><polygon fill="#24b378" points="300.589 487.618 300.604 487.705 300.427 486.524 300.589 487.618"/><polygon fill="#24b378" points="210.99 484.667 211.217 483.728 211.002 484.609 210.99 484.667"/><polygon fill="#24b378" points="182.026 476.534 182.511 475.24 182.065 476.425 182.026 476.534"/><path fill="#24b378" d="M25.26514 234.2771a7.49272 7.49272 0 0 0 8.80761-5.90918c.00293-.01367.02442-.125.02735-.13867a7.50009 7.50009 0 0 0-14.7334-2.81641l7.34766 1.50586-7.3584-1.44922A7.49949 7.49949 0 0 0 25.26514 234.2771zM181.06238 29.80566c-.05371.01954-.20069.07227-.25391.09278a7.50751 7.50751 0 0 0 2.5791 14.54687 7.52643 7.52643 0 1 0-2.32519-14.63965zM23.42725 293.9939a7.5 7.5 0 0 0 7.04638-7.92774c-.002-.03613-.01074-.17285-.01318-.209a7.50009 7.50009 0 0 0-14.96191 1.06738l7.48828-.418L15.5 286.947a7.49962 7.49962 0 0 0 7.48 7.05957C23.12793 294.00659 23.27734 294.00269 23.42725 293.9939zM210.65027 21.02148c-.0708.01465-.23731.05372-.30762.07032a7.53951 7.53951 0 1 0 .30762-.07032zM212.98444 476.43848c-.07764-.01856-.25245-.0586-.33008-.0752a7.56494 7.56494 0 1 0 .33008.0752zm-1.99463 8.22851l.0122-.05761.21534-.88184zM486.60889 218.26074a7.525 7.525 0 1 0 8.395 6.58789c-.00293-.02734-.019-.15332-.023-.18066A7.4573 7.4573 0 0 0 486.60889 218.26074zM25.37842 308.70972a7.49952 7.49952 0 0 0-5.9585 8.77441c.00293.01367.02442.125.02735.13867a7.44261 7.44261 0 0 0 7.32177 6.00489 7.5237 7.5237 0 1 0-1.39062-14.918zM36.65332 190.7605a7.49785 7.49785 0 0 0-9.48682 4.74316c-.00341.01172-.03857.11719-.042.12891a7.49342 7.49342 0 0 0 7.11572 9.78808 7.52753 7.52753 0 0 0 2.41309-14.66015zM22.51562 264.08569c.1504.00879.29981.0127.44825.0127a7.55047 7.55047 0 1 0-7.481-8.1543c-.00244.03613-.01123.17285-.01318.209A7.504 7.504 0 0 0 22.51562 264.08569zM185.14459 468.21777c-.06445-.02441-.22363-.082-.28906-.10449a7.56415 7.56415 0 1 0 .28906.10449zm-3.11865 8.31641l.03906-.10938.44629-1.18457zM241.45074 480.98145a7.5002 7.5002 0 0 0-1.68408 14.90527c.07666.00879.25244.02637.3291.0332.22413.02051.44678.0293.66748.0293a7.50062 7.50062 0 0 0 .6875-14.96777zM483.79639 307.95215a7.55912 7.55912 0 1 0 5.33886 9.33594c.00928-.03418.04346-.165.05223-.19922A7.50221 7.50221 0 0 0 483.79639 307.95215zM474.60352 198.42383a7.55557 7.55557 0 0 0 7.24658 5.50781 7.49364 7.49364 0 0 0 7.21435-9.48926l-7.2666 1.85547 7.2627-1.87109a7.49985 7.49985 0 0 0-14.52539 3.74219C474.54883 198.22168 474.58838 198.37109 474.60352 198.42383z"/><polygon fill="#24b378" points="444.026 396.314 444.096 396.366 443.154 395.65 444.026 396.314"/><path fill="#24b378" d="M332.66736 24.80469a7.49987 7.49987 0 0 0-4.38086 14.3457c.07715.02441.25.0752.32812.0957a7.49985 7.49985 0 0 0 4.05274-14.4414zm-2.17529 7.17773l.27734-.90137zM488.59375 278.415a7.50329 7.50329 0 0 0-8.41895 6.45117c-.0039.02734-.02.15332-.02294.18067a7.49993 7.49993 0 0 0 14.88916 1.81835l-7.43116-1.01464 7.43506.98437A7.50084 7.50084 0 0 0 488.59375 278.415zM496.99707 255.791c.00147-.06348.00244-.12793.00244-.19141V255.5a7.4574 7.4574 0 0 0-7.5-7.4502 7.54242 7.54242 0 0 0-7.5 7.54981c0 .08594.00147.17187.0044.25684-.00245.08105-.00391.1621-.00391.24316a7.5 7.5 0 0 0 15 0V256C497 255.92969 496.999 255.86035 496.99707 255.791zM299.32037 479.10645c-.07226.01074-.2417.03808-.31347.05078a7.56494 7.56494 0 1 0 .31347-.05078zm1.26856 8.51171l-.16162-1.09375.17627 1.18067zM271.85242 15.1123l-.09961-.00292a7.46633 7.46633 0 0 0-7.66748 7.27832 7.543 7.543 0 0 0 7.32568 7.71875c.07568.002.1499.00293.22461.00293a7.50017 7.50017 0 0 0 .2168-14.99708zM270.43121 481.88086l-.10205.00293a7.50021 7.50021 0 0 0 .21924 14.99707c.07568 0 .15186-.001.228-.00293l-.12451-7.5.2207 7.49707a7.50032 7.50032 0 0 0-.44141-14.99414zM327.41949 472.70215a7.49959 7.49959 0 0 0 4.07959 14.43359c.06836-.01855.23145-.0664.29932-.08789a7.49962 7.49962 0 0 0-4.37891-14.3457zM302.73328 18.03223c-.07178-.0127-.24121-.04-.31348-.05078a7.53339 7.53339 0 1 0 .31348.05078zM240.952 16.12793a7.5 7.5 0 0 0 .67578 14.96875c.22119 0 .44385-.00879.668-.0293.07666-.00683.25244-.02441.3291-.0332A7.5001 7.5001 0 0 0 240.952 16.12793zm.59082 6.40625l.09375 1.0625z"/><polygon fill="#52bbe9" points="504.5 47.81 504.5 135.15 430.6 175.47 356.69 135.15 356.69 47.81 430.6 7.5 500.59 45.68 504.5 47.81"/><polygon fill="#1cabe1" points="504.5 47.81 504.5 135.15 430.6 175.47 430.6 76.61 500.59 45.68 504.5 47.81"/><polygon fill="#199ad5" points="504.5 47.81 430.6 91.48 356.69 47.81 430.6 7.5 504.5 47.81"/><polygon fill="#52bbe9" points="504.5 376.842 504.5 464.182 430.6 504.502 356.69 464.182 356.69 376.842 430.6 336.532 500.59 374.712 504.5 376.842"/><polygon fill="#1cabe1" points="504.5 376.842 504.5 464.182 430.6 504.502 430.6 405.642 500.59 374.712 504.5 376.842"/><polygon fill="#199ad5" points="504.5 376.842 430.6 420.512 356.69 376.842 430.6 336.532 504.5 376.842"/><polygon fill="#52bbe9" points="155.318 376.842 155.318 464.182 81.418 504.502 7.508 464.182 7.508 376.842 81.418 336.532 151.408 374.712 155.318 376.842"/><polygon fill="#1cabe1" points="155.318 376.842 155.318 464.182 81.418 504.502 81.418 405.642 151.408 374.712 155.318 376.842"/><polygon fill="#199ad5" points="155.318 376.842 81.418 420.512 7.508 376.842 81.418 336.532 155.318 376.842"/><polygon fill="#52bbe9" points="155.323 47.8 155.323 135.14 81.423 175.46 7.513 135.14 7.513 47.8 81.423 7.49 151.413 45.67 155.323 47.8"/><polygon fill="#1cabe1" points="155.323 47.8 155.323 135.14 81.423 175.46 81.423 76.6 151.413 45.67 155.323 47.8"/><polygon fill="#199ad5" points="155.323 47.8 81.423 91.47 7.513 47.8 81.423 7.49 155.323 47.8"/><circle cx="256" cy="256" r="106.272" fill="#f69531"/><path fill="#f48a31" d="M256,149.72754a106.26152,106.26152,0,0,0-22.5,2.405,106.27756,106.27756,0,0,1,0,207.73486A106.27431,106.27431,0,1,0,256,149.72754Z"/><path fill="#fed947" d="M256,369.77246A113.77246,113.77246,0,1,1,369.77246,256,113.90127,113.90127,0,0,1,256,369.77246Zm0-212.54492A98.77246,98.77246,0,1,0,354.77246,256,98.88456,98.88456,0,0,0,256,157.22754Z"/><path fill="#fff" d="M267.88721,311.7959H234.51367a7.49974,7.49974,0,0,1-7.5-7.5V256a7.49974,7.49974,0,0,1,7.5-7.5h33.37354a27.53143,27.53143,0,0,1,27.5,27.5v8.2959A27.53144,27.53144,0,0,1,267.88721,311.7959Zm-25.87354-15h25.87354a12.51408,12.51408,0,0,0,12.5-12.5V276a12.51408,12.51408,0,0,0-12.5-12.5H242.01367Z"/><path fill="#fff" d="M267.88721,263.5H234.51367a7.49974,7.49974,0,0,1-7.5-7.5V207.7041a7.49974,7.49974,0,0,1,7.5-7.5h33.37354a27.53144,27.53144,0,0,1,27.5,27.5V236A27.53143,27.53143,0,0,1,267.88721,263.5Zm-25.87354-15h25.87354a12.51408,12.51408,0,0,0,12.5-12.5v-8.2959a12.51408,12.51408,0,0,0-12.5-12.5H242.01367Z"/><path fill="#fff" d="M246.22119 215.2041a7.49974 7.49974 0 0 1-7.5-7.5V193.5a7.5 7.5 0 0 1 15 0v14.2041A7.49974 7.49974 0 0 1 246.22119 215.2041zM269.69043 215.2041a7.49974 7.49974 0 0 1-7.5-7.5V193.5a7.5 7.5 0 0 1 15 0v14.2041A7.49974 7.49974 0 0 1 269.69043 215.2041zM246.22119 326a7.49974 7.49974 0 0 1-7.5-7.5V304.2959a7.5 7.5 0 0 1 15 0V318.5A7.49974 7.49974 0 0 1 246.22119 326zM269.69043 326a7.49974 7.49974 0 0 1-7.5-7.5V304.2959a7.5 7.5 0 1 1 15 0V318.5A7.49974 7.49974 0 0 1 269.69043 326z"/><path fill="#fff" d="M242.68311 311.7959H224.11279a7.5 7.5 0 1 1 0-15h18.57032a7.5 7.5 0 0 1 0 15zM242.68311 215.2041H224.11279a7.5 7.5 0 0 1 0-15h18.57032a7.5 7.5 0 0 1 0 15z"/></svg>