<svg width="243" height="275" viewBox="0 0 243 275" fill="none" xmlns="http://www.w3.org/2000/svg">
<path d="M223.357 58.8116H187.613L193.622 22.8271C195.406 12.1433 188.174 2.04754 177.478 0.264855C166.718 -1.49639 156.657 5.71153 154.87 16.3764L147.794 58.8116H89.4174L95.4263 22.8271C97.2101 12.1433 89.9785 2.04754 79.2823 0.264855C68.5217 -1.49639 58.4609 5.71153 56.6746 16.3764L49.5792 58.8116H7.28571C-3.56083 58.8116 -12.3571 67.5902 -12.3571 78.4149C-12.3571 89.8094 -3.56083 98.0183 7.28571 98.0183H43.0296L29.9364 176.432H-12.3571C-23.2037 176.432 -32 185.21 -32 196.035C-32 206.86 -23.2037 215.087 -12.3571 215.087H23.3867L17.3778 251.072C15.594 261.755 22.8257 271.851 33.5218 273.634C34.6016 274.939 35.7065 275 36.75 275C46.1786 275 54.5022 268.206 56.1043 258.625L63.1881 216.19H121.576L115.568 252.174C113.784 262.858 121.015 272.954 131.712 274.737C132.816 274.939 133.921 275 134.964 275C144.393 275 152.717 268.206 154.319 258.625L161.402 216.19H203.714C214.561 216.19 223.357 207.411 223.357 197.138C223.357 186.313 214.561 177.534 203.714 177.534H167.97L181.064 99.121H223.357C234.204 99.121 243 90.3485 243 80.069C243 68.1232 234.222 58.8116 223.357 58.8116ZM128.151 176.432H69.7746L82.8493 98.0183H141.238L128.151 176.432Z" fill="#64FFDA" fill-opacity="0.05"/>
</svg>
