<svg width="256" height="257" viewBox="0 0 256 257" fill="none" xmlns="http://www.w3.org/2000/svg">
<path d="M255.017 23.0398L186.596 242.545C184.991 247.692 181.537 251.817 177.207 253.748C174.767 254.834 172.193 255.149 169.758 254.719C167.872 254.387 166.091 253.618 164.461 252.406L114.148 215.025L83.9732 252.263C81.5807 255.565 78.3207 256.942 75.1696 256.387C69.9928 255.474 66.6938 249.703 67.7912 243.481L76.9692 191.444C77.6482 187.595 79.3758 184.042 81.8783 181.353L206.338 47.4467L48.9065 167.125L6.80027 135.822C2.18361 132.386 -0.237539 126.045 0.674921 118.898C1.58738 111.751 5.40032 106.499 10.7452 104.066L236.758 1.61612C242.153 -0.840354 248.037 0.510943 251.929 5.07629C255.821 9.64163 257.03 16.6224 255.017 23.0398Z" fill="#64FFDA" fill-opacity="0.05"/>
</svg>
