<svg width="190" height="190" viewBox="0 0 190 190" fill="none" xmlns="http://www.w3.org/2000/svg">
<circle cx="95" cy="95" r="95" fill="#E6F1FF"/>
<circle cx="95.5" cy="94.5" r="81.5" fill="#353353"/>
<path d="M75.4844 73.4023V78.8516C74.2995 78.8516 73.2839 78.9948 72.4375 79.2812C71.5911 79.5677 70.9271 79.9648 70.4453 80.4727C69.9766 80.9805 69.599 81.5664 69.3125 82.2305C69.0391 82.8945 68.8503 83.6237 68.7461 84.418C68.6419 85.1992 68.5703 86 68.5312 86.8203C68.4922 87.6406 68.4401 88.474 68.375 89.3203C68.3099 90.1536 68.2057 90.9414 68.0625 91.6836C67.9193 92.4258 67.6654 93.1354 67.3008 93.8125C66.9362 94.4766 66.4674 95.0234 65.8945 95.4531C66.4674 95.8307 66.9362 96.3385 67.3008 96.9766C67.6654 97.6016 67.9193 98.2786 68.0625 99.0078C68.2057 99.724 68.3099 100.505 68.375 101.352C68.4401 102.185 68.4922 103.018 68.5312 103.852C68.5833 104.672 68.6549 105.486 68.7461 106.293C68.8503 107.087 69.0456 107.829 69.332 108.52C69.6185 109.197 69.9961 109.796 70.4648 110.316C70.9466 110.837 71.6107 111.247 72.457 111.547C73.3034 111.846 74.319 111.996 75.5039 111.996V117.445C72.7826 117.445 70.4844 117.224 68.6094 116.781C66.7344 116.339 65.1133 115.59 63.7461 114.535C62.3919 113.493 61.3633 112.1 60.6602 110.355C59.957 108.611 59.5143 106.443 59.332 103.852C59.306 103.617 59.2734 103.298 59.2344 102.895C59.1953 102.491 59.1628 102.159 59.1367 101.898C59.1107 101.625 59.0651 101.312 59 100.961C58.9349 100.596 58.8568 100.297 58.7656 100.062C58.6745 99.8151 58.5378 99.5612 58.3555 99.3008C58.1862 99.0404 57.9844 98.832 57.75 98.6758C57.5156 98.5195 57.2227 98.3958 56.8711 98.3047C56.5195 98.2005 56.1159 98.1484 55.6602 98.1484V92.6992C56.1029 92.6992 56.5 92.6536 56.8516 92.5625C57.2031 92.4583 57.4961 92.3346 57.7305 92.1914C57.9648 92.0482 58.1667 91.8529 58.3359 91.6055C58.5182 91.3451 58.6549 91.1042 58.7461 90.8828C58.8372 90.6484 58.9154 90.349 58.9805 89.9844C59.0586 89.6198 59.1107 89.3073 59.1367 89.0469C59.1628 88.7865 59.1953 88.4479 59.2344 88.0312C59.2865 87.6016 59.3255 87.263 59.3516 87.0156C59.8073 83.5651 60.6341 80.8633 61.832 78.9102C63.043 76.944 64.7227 75.5378 66.8711 74.6914C69.0326 73.832 71.9036 73.4023 75.4844 73.4023ZM96.8672 84.5156H93.4883V106.449H96.8672V99.0078H108.664V103.793C108.664 104.809 108.514 105.727 108.215 106.547C107.915 107.354 107.525 108.031 107.043 108.578C106.574 109.125 105.975 109.6 105.246 110.004C104.517 110.408 103.781 110.72 103.039 110.941C102.31 111.163 101.464 111.339 100.5 111.469C99.5365 111.599 98.6641 111.684 97.8828 111.723C97.1146 111.762 96.2422 111.781 95.2656 111.781C94.3672 111.781 93.5469 111.762 92.8047 111.723C92.0625 111.697 91.2031 111.618 90.2266 111.488C89.263 111.358 88.4036 111.182 87.6484 110.961C86.8932 110.74 86.125 110.427 85.3438 110.023C84.5625 109.62 83.918 109.145 83.4102 108.598C82.9023 108.051 82.4857 107.367 82.1602 106.547C81.8346 105.727 81.6719 104.802 81.6719 103.773V87.0547C81.6719 86.0521 81.8216 85.1471 82.1211 84.3398C82.4336 83.5195 82.8307 82.8359 83.3125 82.2891C83.8073 81.7422 84.4258 81.2669 85.168 80.8633C85.9102 80.4466 86.6523 80.1276 87.3945 79.9062C88.1497 79.6849 89.0091 79.5091 89.9727 79.3789C90.9362 79.2357 91.8086 79.1445 92.5898 79.1055C93.3841 79.0664 94.2565 79.0469 95.207 79.0469C96.2227 79.0469 97.1211 79.0664 97.9023 79.1055C98.6836 79.1315 99.5625 79.2096 100.539 79.3398C101.529 79.4701 102.382 79.6458 103.098 79.8672C103.827 80.0755 104.556 80.3815 105.285 80.7852C106.027 81.1888 106.626 81.6641 107.082 82.2109C107.551 82.7578 107.928 83.4414 108.215 84.2617C108.514 85.082 108.664 86.0065 108.664 87.0352V91.8789H96.8672V84.5156ZM114.949 78.8516V73.4023C118.53 73.4023 121.395 73.832 123.543 74.6914C125.704 75.5378 127.384 76.944 128.582 78.9102C129.793 80.8633 130.626 83.5651 131.082 87.0156C131.108 87.263 131.141 87.6016 131.18 88.0312C131.232 88.4479 131.271 88.7865 131.297 89.0469C131.323 89.3073 131.368 89.6198 131.434 89.9844C131.512 90.349 131.596 90.6484 131.688 90.8828C131.779 91.1042 131.909 91.3451 132.078 91.6055C132.26 91.8529 132.469 92.0482 132.703 92.1914C132.938 92.3346 133.23 92.4583 133.582 92.5625C133.934 92.6536 134.331 92.6992 134.773 92.6992V98.1484C134.318 98.1484 133.914 98.2005 133.562 98.3047C133.211 98.3958 132.918 98.5195 132.684 98.6758C132.449 98.832 132.241 99.0404 132.059 99.3008C131.889 99.5612 131.759 99.8151 131.668 100.062C131.577 100.297 131.499 100.596 131.434 100.961C131.368 101.312 131.323 101.625 131.297 101.898C131.271 102.159 131.238 102.491 131.199 102.895C131.16 103.298 131.128 103.617 131.102 103.852C130.919 106.443 130.477 108.611 129.773 110.355C129.07 112.1 128.035 113.493 126.668 114.535C125.314 115.59 123.699 116.339 121.824 116.781C119.949 117.224 117.651 117.445 114.93 117.445V111.996C116.115 111.996 117.13 111.846 117.977 111.547C118.823 111.247 119.48 110.837 119.949 110.316C120.431 109.796 120.815 109.197 121.102 108.52C121.388 107.829 121.577 107.087 121.668 106.293C121.772 105.486 121.844 104.672 121.883 103.852C121.935 103.018 121.993 102.185 122.059 101.352C122.124 100.505 122.228 99.724 122.371 99.0078C122.514 98.2786 122.768 97.6016 123.133 96.9766C123.497 96.3385 123.966 95.8307 124.539 95.4531C123.966 95.0234 123.497 94.4766 123.133 93.8125C122.768 93.1354 122.514 92.4258 122.371 91.6836C122.228 90.9414 122.124 90.1536 122.059 89.3203C121.993 88.474 121.941 87.6406 121.902 86.8203C121.863 86 121.792 85.1992 121.688 84.418C121.583 83.6237 121.388 82.8945 121.102 82.2305C120.828 81.5664 120.451 80.9805 119.969 80.4727C119.5 79.9648 118.842 79.5677 117.996 79.2812C117.15 78.9948 116.134 78.8516 114.949 78.8516Z" fill="#64FFDA" fill-opacity="0.87"/>
</svg>
